<svg width="323" height="90" viewBox="0 0 323 90" fill="none" xmlns="http://www.w3.org/2000/svg">
<path d="M150.8 33.4736C150.589 31.3435 149.683 29.6887 148.081 28.5092C146.479 27.3298 144.305 26.74 141.558 26.74C139.692 26.74 138.117 27.0041 136.832 27.5322C135.547 28.0427 134.561 28.7557 133.874 29.6711C133.205 30.5865 132.871 31.6251 132.871 32.787C132.835 33.7552 133.038 34.6002 133.478 35.322C133.936 36.0438 134.561 36.6687 135.353 37.1968C136.145 37.7073 137.06 38.1562 138.099 38.5435C139.138 38.9132 140.247 39.2301 141.426 39.4941L146.285 40.656C148.644 41.1841 150.809 41.8883 152.781 42.7685C154.753 43.6487 156.46 44.7313 157.904 46.0164C159.347 47.3015 160.465 48.8155 161.257 50.5583C162.067 52.3011 162.481 54.2991 162.498 56.5525C162.481 59.862 161.636 62.7315 159.963 65.1608C158.309 67.5726 155.914 69.4474 152.781 70.7853C149.665 72.1056 145.906 72.7658 141.505 72.7658C137.14 72.7658 133.337 72.0968 130.098 70.7589C126.877 69.421 124.359 67.4406 122.546 64.8176C120.75 62.1769 119.808 58.9114 119.72 55.0209H130.785C130.908 56.8341 131.427 58.3481 132.343 59.5627C133.276 60.7598 134.517 61.6664 136.066 62.2826C137.633 62.8811 139.402 63.1804 141.373 63.1804C143.31 63.1804 144.991 62.8987 146.417 62.3354C147.861 61.7721 148.978 60.9887 149.771 59.9852C150.563 58.9818 150.959 57.8288 150.959 56.5261C150.959 55.3114 150.598 54.2903 149.876 53.4629C149.172 52.6356 148.133 51.9314 146.76 51.3505C145.405 50.7695 143.741 50.2414 141.77 49.7661L135.881 48.2874C131.322 47.1783 127.722 45.4443 125.081 43.0854C122.44 40.7264 121.129 37.5489 121.146 33.5528C121.129 30.2784 122 27.4178 123.761 24.9708C125.539 22.5239 127.977 20.6138 131.075 19.2407C134.173 17.8676 137.694 17.181 141.638 17.181C145.651 17.181 149.154 17.8676 152.147 19.2407C155.157 20.6138 157.499 22.5239 159.171 24.9708C160.844 27.4178 161.706 30.252 161.759 33.4736H150.8ZM181.227 17.9204V72H169.978V17.9204H181.227ZM201.804 72.7658C199.216 72.7658 196.91 72.3169 194.885 71.4191C192.861 70.5037 191.259 69.1569 190.079 67.3789C188.918 65.5833 188.337 63.3476 188.337 60.6718C188.337 58.4185 188.75 56.5261 189.578 54.9945C190.405 53.4629 191.532 52.2307 192.958 51.2977C194.384 50.3646 196.003 49.6605 197.816 49.1852C199.647 48.7099 201.566 48.3754 203.573 48.1817C205.932 47.9353 207.833 47.7064 209.277 47.4952C210.72 47.2663 211.768 46.9319 212.419 46.4918C213.07 46.0516 213.396 45.4003 213.396 44.5377V44.3793C213.396 42.7069 212.868 41.413 211.812 40.4976C210.773 39.5822 209.294 39.1245 207.375 39.1245C205.351 39.1245 203.74 39.5734 202.543 40.4712C201.346 41.3514 200.554 42.4604 200.167 43.7983L189.763 42.9533C190.291 40.4888 191.329 38.3587 192.878 36.5631C194.428 34.7499 196.426 33.3591 198.873 32.3909C201.337 31.4051 204.189 30.9122 207.428 30.9122C209.682 30.9122 211.838 31.1762 213.898 31.7044C215.975 32.2325 217.815 33.0511 219.417 34.1601C221.036 35.2692 222.312 36.6951 223.245 38.4379C224.178 40.1631 224.645 42.2316 224.645 44.6433V72H213.977V66.3755H213.66C213.009 67.643 212.137 68.7609 211.046 69.7291C209.954 70.6797 208.643 71.4279 207.111 71.9736C205.58 72.5017 203.811 72.7658 201.804 72.7658ZM205.025 65.0024C206.68 65.0024 208.141 64.6767 209.409 64.0254C210.676 63.3564 211.671 62.4586 212.393 61.332C213.114 60.2053 213.475 58.929 213.475 57.5031V53.1989C213.123 53.4277 212.639 53.639 212.023 53.8326C211.424 54.0087 210.747 54.1759 209.99 54.3343C209.233 54.4752 208.476 54.6072 207.719 54.7304C206.962 54.8361 206.275 54.9329 205.659 55.0209C204.339 55.2146 203.186 55.5226 202.2 55.9451C201.214 56.3676 200.448 56.9397 199.902 57.6615C199.357 58.3657 199.084 59.2459 199.084 60.3021C199.084 61.8337 199.638 63.0043 200.747 63.8141C201.874 64.6063 203.3 65.0024 205.025 65.0024ZM244.621 48.5514V72H233.372V31.4403H244.093V38.5963H244.568C245.466 36.2374 246.971 34.3714 249.084 32.9983C251.196 31.6075 253.758 30.9122 256.768 30.9122C259.585 30.9122 262.04 31.5283 264.135 32.7606C266.23 33.9929 267.858 35.7533 269.02 38.0418C270.182 40.3127 270.763 43.0238 270.763 46.1749V72H259.514V48.1817C259.532 45.6996 258.898 43.7631 257.613 42.3724C256.328 40.9641 254.559 40.2599 252.305 40.2599C250.791 40.2599 249.453 40.5856 248.292 41.2369C247.147 41.8883 246.249 42.8389 245.598 44.0888C244.964 45.3211 244.639 46.8086 244.621 48.5514ZM297.902 88.0549C294.258 88.0549 291.133 87.5532 288.528 86.5497C285.94 85.5639 283.88 84.2172 282.349 82.5096C280.817 80.802 279.823 78.8832 279.365 76.7531L289.769 75.3536C290.086 76.1634 290.587 76.9203 291.274 77.6245C291.961 78.3287 292.867 78.892 293.994 79.3145C295.138 79.7546 296.529 79.9746 298.166 79.9746C300.613 79.9746 302.629 79.3761 304.213 78.179C305.815 76.9995 306.616 75.0191 306.616 72.2377V64.8176H306.141C305.648 65.9442 304.908 67.0093 303.923 68.0127C302.937 69.0161 301.669 69.8347 300.12 70.4684C298.571 71.1022 296.722 71.4191 294.575 71.4191C291.529 71.4191 288.757 70.7149 286.257 69.3066C283.775 67.8807 281.794 65.7066 280.316 62.7843C278.854 59.8444 278.124 56.13 278.124 51.6409C278.124 47.0463 278.872 43.2086 280.368 40.1279C281.865 37.0472 283.854 34.7411 286.336 33.2095C288.836 31.678 291.573 30.9122 294.548 30.9122C296.819 30.9122 298.721 31.2995 300.252 32.074C301.784 32.831 303.016 33.7816 303.949 34.9259C304.9 36.0526 305.63 37.1616 306.141 38.2531H306.563V31.4403H317.733V72.3961C317.733 75.8465 316.888 78.7335 315.198 81.0573C313.508 83.381 311.167 85.1238 308.174 86.2857C305.199 87.4651 301.775 88.0549 297.902 88.0549ZM298.14 62.9691C299.953 62.9691 301.484 62.5202 302.734 61.6224C304.002 60.707 304.97 59.4043 305.639 57.7143C306.325 56.0067 306.669 53.9647 306.669 51.5881C306.669 49.2116 306.334 47.1519 305.665 45.4091C304.996 43.6487 304.028 42.2844 302.761 41.3162C301.493 40.3479 299.953 39.8638 298.14 39.8638C296.291 39.8638 294.733 40.3655 293.466 41.369C292.198 42.3548 291.239 43.7279 290.587 45.4883C289.936 47.2487 289.61 49.282 289.61 51.5881C289.61 53.9295 289.936 55.9539 290.587 57.6615C291.256 59.3515 292.216 60.663 293.466 61.596C294.733 62.5114 296.291 62.9691 298.14 62.9691Z" fill="black"/>
<g clip-path="url(#clip0_4209_73)">
<path d="M51.894 80.4367H25.9467V66.1332L13.4465 73.139L0.0252686 53.7417L14.8963 45.4078L0.0252686 37.0738L13.4465 17.6766L25.9467 24.6824V10.3789H51.894V24.6824L64.3941 17.6766L77.8154 37.0826L62.9443 45.4078L77.8154 53.7417L64.3941 73.139L51.894 66.1332V80.4367ZM32.4335 74.5985H45.4071V55.6245L62.3151 65.1028L68.883 55.6245L50.6745 45.4078L68.883 35.191L62.3151 25.7099L45.4071 35.191V16.217H32.4335V35.191L15.5256 25.7099L8.95764 35.191L27.1662 45.4078L8.95764 55.6245L15.5256 65.1174L32.4335 55.6245V74.5985Z" fill="#101010"/>
</g>
<defs>
<clipPath id="clip0_4209_73">
<rect width="77.842" height="70.0578" fill="white" transform="translate(0 10.3789)"/>
</clipPath>
</defs>
</svg>
